<svg xmlns="http://www.w3.org/2000/svg" width="13" height="13" viewBox="0 0 13 13"><g><g><path fill="#fff" d="M12.994 10.26a.63.63 0 0 1-.193.55l-1.83 1.818c-.083.092-.19.17-.324.234a1.344 1.344 0 0 1-.392.124 2.012 2.012 0 0 1-.261.014c-.175 0-.457-.03-.847-.09-.39-.06-.867-.206-1.431-.44-.565-.234-1.204-.586-1.92-1.054-.716-.468-1.477-1.11-2.285-1.927A15.09 15.09 0 0 1 1.915 7.67 12.915 12.915 0 0 1 .897 6.066 8.654 8.654 0 0 1 .319 4.73a7.097 7.097 0 0 1-.262-1.032 3.416 3.416 0 0 1-.055-.682c.01-.165.014-.257.014-.275.018-.13.06-.26.124-.393s.142-.241.234-.324L2.204.193A.605.605 0 0 1 2.644 0c.12 0 .225.034.317.103a.96.96 0 0 1 .234.255l1.472 2.795a.67.67 0 0 1 .07.482.856.856 0 0 1-.235.441l-.674.675a.222.222 0 0 0-.048.09.338.338 0 0 0-.02.103c.036.193.118.413.247.66.11.221.28.49.51.806.228.317.554.682.976 1.095.413.423.78.75 1.101.985.321.234.59.406.805.517.216.11.381.176.496.199l.172.034a.33.33 0 0 0 .09-.02.23.23 0 0 0 .089-.048l.784-.8a.842.842 0 0 1 .578-.22c.156 0 .28.028.372.083h.013l2.656 1.57c.193.12.308.27.345.454z"/></g></g></svg>