<svg xmlns="http://www.w3.org/2000/svg" width="53" height="29" viewBox="0 0 53 29"><g><g><path fill="#fff" d="M14.891 20.298a.404.404 0 0 1-.05.197l-.788 5.881c2.246-.078 5.688-.684 7.963-1.408l.235-5.528c-1.756.529-4.128.988-6.116 1.175a.407.407 0 0 1-.444-.365.407.407 0 0 1 .368-.443c2.045-.192 4.503-.68 6.228-1.228l.202-4.735c-1.602.479-3.764.9-5.59 1.084l-.041.002a.406.406 0 0 1-.04-.81c1.886-.189 4.135-.638 5.707-1.137l.167-3.924c-1.482.438-3.465.826-5.14.998a.407.407 0 0 1-.084-.807c1.736-.178 3.805-.593 5.26-1.05l.134-3.135c-1.38.404-3.22.766-4.781.931L18.037 6a.405.405 0 0 1-.043-.809c1.623-.173 3.55-.56 4.905-.984l.1-2.339c-1.767.517-4.161.922-5.795.977l-.369 2.752a.405.405 0 0 1-.039.288l-.502 3.757a.405.405 0 0 1-.043.314l-.63 4.705a.404.404 0 0 1-.003.024L14.88 20.2a.406.406 0 0 1 .011.098zm-2.814-.624l-.08-.072a.405.405 0 0 1-.024-.573.41.41 0 0 1 .576-.025l.081.075c.372.343.755.696 1.472.79l.652-4.874c-.919-.119-1.42-.582-1.8-.932a.407.407 0 0 1 .554-.595c.34.314.69.637 1.354.722l.545-4.071c-.751-.11-1.204-.468-1.575-.808a.407.407 0 0 1 .55-.598c.308.281.614.522 1.133.602l.436-3.255c-.655-.102-1.077-.402-1.41-.697a.404.404 0 0 1-.032-.573.408.408 0 0 1 .575-.032c.24.213.514.423.975.497l.326-2.439c-.767-.116-1.196-.512-1.523-.813-.284-.262-.43-.382-.654-.363l-.521 2.917a.404.404 0 0 1-.007.038l-.707 3.958a.405.405 0 0 1-.006.032L11.12 18.937a.402.402 0 0 1-.004.022l-1.036 5.802c.676-.015 1.105.383 1.494.742.414.382.841.775 1.659.864l.762-5.694c-.973-.127-1.51-.623-1.917-1zm-7.898.944l-.038.001a.406.406 0 0 1-.038-.81c2.043-.19 4.517-.684 6.254-1.24l.839-4.698c-1.588.465-3.7.875-5.49 1.055a.406.406 0 0 1-.082-.808c1.899-.19 4.163-.645 5.732-1.146l.694-3.886a30.16 30.16 0 0 1-5.04.974l-.042.002a.406.406 0 0 1-.041-.81c1.733-.178 3.818-.6 5.284-1.064l.553-3.096a28.837 28.837 0 0 1-4.668.904.407.407 0 0 1-.448-.36.405.405 0 0 1 .362-.446c1.642-.175 3.538-.56 4.914-.995l.411-2.303c-1.773.51-4.142.905-5.75.953L1.282 26.374c2.26-.088 5.681-.696 7.933-1.418l.98-5.489c-1.754.52-4.077.969-6.017 1.15zm19.836-.943a.405.405 0 0 1-.021-.574.409.409 0 0 1 .575-.022c.368.34.746.688 1.446.786V15c-.856-.095-1.356-.484-1.76-.852a.407.407 0 0 1 .55-.6c.313.286.647.548 1.21.633V10.13c-.737-.09-1.2-.414-1.561-.733a.407.407 0 0 1 .54-.606c.241.212.535.436 1.02.52V6.07a2.554 2.554 0 0 1-1.377-.612.404.404 0 0 1-.051-.57.408.408 0 0 1 .574-.052c.213.177.465.345.855.414V2.824c-.801-.105-1.243-.513-1.577-.821-.267-.247-.411-.367-.615-.365l-.122 2.869-.001.031-.168 3.962a.4.4 0 0 1-.002.03l-.69 16.234c.72-.047 1.167.367 1.57.739.405.373.822.758 1.605.857v-5.677c-1.025-.11-1.581-.622-2-1.008zm12.048.1a.407.407 0 0 1 .55-.599c.34.309.7.592 1.306.684l-.65-4.854c-.822-.08-1.331-.434-1.724-.78a.405.405 0 0 1-.035-.573.41.41 0 0 1 .576-.035c.254.224.564.461 1.071.554l-.54-4.035a2.668 2.668 0 0 1-1.506-.63.405.405 0 0 1-.056-.57c.142-.173.4-.2.574-.056.22.179.478.348.876.422l-.431-3.223a2.542 2.542 0 0 1-1.314-.508.406.406 0 1 1 .49-.65c.162.122.38.256.712.322l-.323-2.414c-.832-.095-1.285-.513-1.627-.828-.245-.226-.387-.346-.565-.362l.258 2.765a.4.4 0 0 1 .012.128l.362 3.865a.4.4 0 0 1 .012.128l.44 4.706.002.027 1.077 11.51c.759-.077 1.22.35 1.636.734.394.363.799.737 1.542.849l-.758-5.661c-.968-.08-1.521-.51-1.967-.916zm-7.973.839l-.038.001a.407.407 0 0 1-.406-.366.407.407 0 0 1 .368-.444c2.015-.19 4.505-.68 6.2-1.212l-.447-4.77c-1.61.488-3.814.92-5.674 1.106a.408.408 0 0 1-.446-.363.407.407 0 0 1 .365-.444c1.876-.188 4.106-.63 5.678-1.125l-.37-3.958c-1.483.443-3.506.84-5.226 1.018l-.042.002a.408.408 0 0 1-.406-.364.408.408 0 0 1 .364-.446c1.738-.18 3.788-.588 5.233-1.035l-.297-3.169c-1.375.408-3.25.777-4.85.948a.407.407 0 0 1-.448-.36.406.406 0 0 1 .361-.447c1.62-.173 3.52-.553 4.86-.966l-.222-2.374c-1.756.521-4.163.934-5.817.996v6.835a.408.408 0 0 1 0 .143v16.558c2.231-.069 5.687-.673 7.981-1.397l-.52-5.562c-1.751.532-4.166 1.001-6.2 1.195zm20.778-.651a.409.409 0 0 1-.573.064 6.659 6.659 0 0 1-.404-.353c-.32-.295-.517-.463-.784-.48l1.282 5.582c.793-.105 1.267.334 1.693.727.381.352.773.713 1.471.837L45.258 2.835c-.859-.086-1.322-.513-1.67-.833-.22-.202-.355-.32-.51-.353l.546 2.375c.582-.026.95.312 1.26.596a.407.407 0 0 1-.553.598c-.221-.204-.363-.327-.518-.369l.727 3.165c.623-.04 1.016.32 1.344.622l.1.093c.167.151.179.407.028.573a.409.409 0 0 1-.576.028l-.106-.097c-.255-.235-.414-.37-.603-.403l.912 3.97c.686-.073 1.1.31 1.472.653l.173.159a.405.405 0 0 1 .034.573.411.411 0 0 1-.575.034l-.186-.17c-.294-.27-.472-.435-.734-.445l1.099 4.784c.705-.062 1.135.334 1.523.691.111.103.227.211.358.313.176.14.205.394.065.57zm-8.821.65a.405.405 0 0 1-.078-.808c2.03-.194 4.455-.674 6.164-1.212l-1.099-4.788c-1.62.497-3.862.939-5.747 1.125a.405.405 0 0 1-.081-.808c1.86-.184 4.071-.62 5.646-1.11l-.92-4.004c-1.49.455-3.556.866-5.297 1.046a.408.408 0 0 1-.448-.362.408.408 0 0 1 .364-.445c1.717-.178 3.755-.584 5.2-1.032l-.736-3.202c-1.393.425-3.272.8-4.922.979a.407.407 0 0 1-.087-.807c1.6-.174 3.49-.553 4.827-.966l-.55-2.392c-1.74.525-4.148.943-5.82 1.013l3.152 23.54c2.215-.061 5.676-.661 7.988-1.385l-1.288-5.609c-1.756.546-4.213 1.03-6.268 1.227zM11.02 26.098c-.468-.431-.703-.647-1.3-.453a.41.41 0 0 1-.032.01c-2.396.805-6.105 1.465-8.53 1.535V28c2.332-.072 6.003-.727 8.286-1.496 1.065-.362 1.63.162 2.13.622.47.433.956.881 2.012.881 2.291 0 6.273-.688 8.694-1.503 1.066-.362 1.632.162 2.13.622.47.433.956.881 2.012.881 2.292 0 6.274-.688 8.695-1.503 1.065-.362 1.63.162 2.129.622.47.433.955.881 2.012.881 2.292 0 6.274-.688 8.695-1.503 1.066-.362 1.63.162 2.129.622.405.373.822.758 1.605.857v-.807c-1.109-.11-1.709-.663-2.16-1.078-.47-.435-.707-.65-1.313-.448-2.533.853-6.55 1.546-8.956 1.546-1.375 0-2.064-.635-2.566-1.098-.466-.43-.705-.646-1.297-.454a.407.407 0 0 1-.039.013c-2.534.85-6.535 1.539-8.934 1.539-1.375 0-2.063-.635-2.566-1.098-.467-.43-.704-.647-1.3-.453a.407.407 0 0 1-.033.011c-2.534.85-6.537 1.54-8.936 1.54h-.001c-1.376 0-2.064-.635-2.566-1.098zM6.87 2.358a.407.407 0 0 1 .399-.32c1.681 0 4.615-.506 6.425-1.107a.402.402 0 0 1 .06-.019c.832-.267 1.292.155 1.66.495.352.325.684.63 1.431.63 1.687 0 4.635-.508 6.444-1.112a.385.385 0 0 1 .035-.011c.837-.27 1.297.152 1.667.493.351.325.683.63 1.43.63 1.684 0 4.621-.506 6.432-1.107A.404.404 0 0 1 32.9.914c.836-.273 1.295.151 1.666.492.352.326.684.632 1.432.632 1.69 0 4.646-.511 6.454-1.116.853-.289 1.316.14 1.69.484.352.326.685.632 1.433.632.198 0 .362.14.4.326l6.507 24.3c.013.04.02.082.02.126v1.623a.406.406 0 0 1-.407.406c-1.376 0-2.065-.635-2.567-1.098-.471-.434-.708-.65-1.314-.448-2.533.853-6.55 1.546-8.956 1.546-1.375 0-2.064-.635-2.566-1.098-.47-.434-.71-.65-1.314-.448-2.534.853-6.55 1.546-8.956 1.546-1.375 0-2.063-.635-2.566-1.098-.471-.434-.708-.65-1.315-.448-2.533.853-6.55 1.546-8.955 1.546-1.376 0-2.064-.635-2.566-1.098-.472-.434-.707-.65-1.315-.448-2.533.853-6.55 1.546-8.955 1.546a.406.406 0 0 1-.408-.406v-1.615a.4.4 0 0 1 .018-.125z"/></g></g></svg>